HIERARCHY
ROOT Hips
{
	OFFSET -3.958830 18.904000 13.208200
	CHANNELS 6 Xposition Yposition Zposition Zrotation Yrotation Xrotation 
	JOINT LHipJoint
	{
		OFFSET 0.000000 0.000000 0.000000
		CHANNELS 3 Zrotation Yrotation Xrotation
		JOINT LeftUpLeg
		{
			OFFSET 1.800000 -1.400000 0.085000
			CHANNELS 3 Zrotation Yrotation Xrotation
			JOINT LeftLeg
			{
				OFFSET 2.215000 -6.000000 0.000000
				CHANNELS 3 Zrotation Yrotation Xrotation
				JOINT LeftFoot
				{
					OFFSET 2.500000 -6.900000 0.000000
					CHANNELS 3 Zrotation Yrotation Xrotation
					JOINT LeftToeBase
					{
						OFFSET 0.200000 -0.500000 1.950000
						CHANNELS 3 Zrotation Yrotation Xrotation
						End Site
						{
							OFFSET 0.000000 0.000000 0.000000
						}
					}
				}
			}
		}
	}
	JOINT RHipJoint
	{
		OFFSET 0.000000 0.000000 0.000000
		CHANNELS 3 Zrotation Yrotation Xrotation
		JOINT RightUpLeg
		{
			OFFSET -1.800000 -1.400000 0.085000
			CHANNELS 3 Zrotation Yrotation Xrotation
			JOINT RightLeg
			{
				OFFSET -2.215000 -6.000000 0.000000
				CHANNELS 3 Zrotation Yrotation Xrotation
				JOINT RightFoot
				{
					OFFSET -2.500000 -6.900000 0.000000
					CHANNELS 3 Zrotation Yrotation Xrotation
					JOINT RightToeBase
					{
						OFFSET -0.200000 -0.500000 1.950000
						CHANNELS 3 Zrotation Yrotation Xrotation
						End Site
						{
							OFFSET 0.000000 0.000000 0.000000
						}
					}
				}
			}
		}
	}
	JOINT LowerBack
	{
		OFFSET 0.000000 0.000000 0.000000
		CHANNELS 3 Zrotation Yrotation Xrotation
		JOINT Spine
		{
			OFFSET -0.087000 1.940000 -0.288900
			CHANNELS 3 Zrotation Yrotation Xrotation
			JOINT Spine1
			{
				OFFSET 0.000000 1.950000 0.060000
				CHANNELS 3 Zrotation Yrotation Xrotation
				JOINT Neck
				{
					OFFSET 0.000000 0.000000 0.000000
					CHANNELS 3 Zrotation Yrotation Xrotation
					JOINT Neck1
					{
						OFFSET 0.000000 1.600000 0.340000
						CHANNELS 3 Zrotation Yrotation Xrotation
						JOINT Head
						{
							OFFSET 0.000000 1.667000 -0.240000
							CHANNELS 3 Zrotation Yrotation Xrotation
							End Site
							{
								OFFSET 0.000000 0.000000 0.000000
							}
						}
					}
				}
				JOINT LeftShoulder
				{
					OFFSET 0.000000 0.000000 0.000000
					CHANNELS 3 Zrotation Yrotation Xrotation
					JOINT LeftArm
					{
						OFFSET 2.700000 1.550000 -0.730000
						CHANNELS 3 Zrotation Yrotation Xrotation
						JOINT LeftForeArm
						{
							OFFSET 5.450000 0.000000 0.000000
							CHANNELS 3 Zrotation Yrotation Xrotation
							JOINT LeftHand
							{
								OFFSET 3.450000 0.000000 0.000000
								CHANNELS 3 Zrotation Yrotation Xrotation
								JOINT LeftHandIndex1
								{
									OFFSET 0.750000 0.000000 0.000000
									CHANNELS 3 Zrotation Yrotation Xrotation
									End Site
									{
										OFFSET 0.000000 0.000000 0.000000
									}
								}
							}
						}
					}
				}
				JOINT RightShoulder
				{
					OFFSET 0.000000 0.000000 0.000000
					CHANNELS 3 Zrotation Yrotation Xrotation
					JOINT RightArm
					{
						OFFSET -2.700000 1.550000 -0.730000
						CHANNELS 3 Zrotation Yrotation Xrotation
						JOINT RightForeArm
						{
							OFFSET -5.450000 0.000000 0.000000
							CHANNELS 3 Zrotation Yrotation Xrotation
							JOINT RightHand
							{
								OFFSET -3.450000 0.000000 0.000000
								CHANNELS 3 Zrotation Yrotation Xrotation
								JOINT RightHandIndex1
								{
									OFFSET -0.750000 0.000000 0.000000
									CHANNELS 3 Zrotation Yrotation Xrotation
									End Site
									{
										OFFSET 0.000000 0.000000 0.000000
									}
								}
							}
						}
					}
				}
			}
		}
	}
}
MOTION
Frames: 14
Frame Time: 0.016667
0.751900 17.364230 -4.324140 -17.128534 12.829103 1.346143 -15.477896 10.691865 2.725864 10.037603 -1.803727 -43.313308 12.016777 7.391767 52.227677 0.260026 8.384721 1.349364 0.872350 0.727550 0.627460 18.913406 -4.875780 8.453769 -42.814142 14.607714 -83.438130 40.229688 -60.491247 83.623650 -4.676167 -19.156623 -0.948441 0.334360 -0.385830 0.020240 -3.731480 -3.959019 -10.616934 21.232193 -10.417663 54.826129 -11.370768 0.782336 0.410415 6.960350 -10.527963 -19.382789 -27.110627 3.484633 40.526029 6.916920 -8.733280 -34.068590 -39.838776 -29.642378 3.661856 -24.645723 -5.633738 -18.284558 -29.417935 -49.354762 7.613577 -2.081483 3.656669 0.811740 -0.552530 0.463960 0.156820 27.058812 40.903405 13.580846 21.044030 20.364652 -4.060572 -7.657588 9.262361 -0.636414 2.540439 -0.980001 0.059260 0.299760 -0.302180 -0.145780 
0.774930 17.280740 -4.276290 -16.841280 10.948783 1.467842 -15.497615 10.470861 2.777851 11.228470 -1.402431 -43.630268 10.553600 9.307444 55.681159 0.447022 9.213408 1.118297 0.845270 0.713120 0.560330 18.945861 -4.669191 8.586887 -42.919193 16.522911 -91.296900 42.158162 -61.676554 84.024500 -4.811209 -19.574793 -0.967862 0.330960 -0.304350 -0.018840 -3.743575 -3.775314 -10.716417 19.001272 -8.443684 56.411638 -9.787306 1.769818 0.835608 6.405555 -12.111143 -19.844352 -30.588558 4.290619 38.433194 10.209680 -9.486730 -34.431800 -38.795421 -29.272749 3.222266 -28.784704 -6.176358 -19.609928 -32.803714 -53.606465 9.356851 -2.069611 3.623619 0.795440 -0.553800 0.431140 0.195600 27.892945 41.352884 14.348832 20.749256 18.645846 -3.531756 -5.415187 7.346003 -0.289759 2.583429 -0.895447 0.033290 0.374310 -0.292000 -0.096070 
0.778580 17.210640 -4.191860 -16.409405 9.527437 0.717733 -15.516629 10.472941 2.773585 12.481692 -0.871588 -42.701320 9.424168 11.019407 58.473400 0.651508 9.874725 0.921819 0.835640 0.739040 0.493620 18.911550 -4.689563 8.504567 -41.659977 19.630132 -96.841287 39.409303 -63.236092 89.583659 -5.122895 -20.796866 -1.130923 0.329630 -0.255180 -0.034990 -3.692143 -3.687874 -10.725131 16.591756 -5.882583 57.165599 -7.500162 2.617840 1.516772 5.493018 -13.212192 -19.930375 -33.406618 4.888467 37.861659 13.308230 -10.281810 -34.597660 -37.213389 -28.524082 2.937460 -33.116739 -6.936526 -20.014133 -36.960862 -57.569078 11.899415 -2.139998 3.593594 0.758040 -0.557930 0.418820 0.224810 28.707338 41.088310 14.902954 21.263776 16.534926 -3.389314 -3.950936 6.238496 -0.155915 2.609029 -0.865124 0.055220 0.402770 -0.289210 -0.035810 
0.764220 17.177950 -4.090130 -16.038514 9.267824 -0.288090 -15.533055 10.601647 2.839169 13.870308 -0.831825 -41.109869 7.758587 12.621738 60.223161 0.787637 10.347468 0.763654 0.840610 0.759850 0.466100 18.824155 -4.887347 8.208926 -38.886901 23.080972 -100.104288 35.186224 -64.219316 96.233981 -5.454052 -22.132630 -1.312656 0.329630 -0.256230 -0.037620 -3.577637 -3.678453 -10.693183 14.009094 -3.604577 57.320555 -5.703226 3.550025 2.520872 4.899669 -13.180869 -20.364986 -33.522681 5.154475 38.912914 15.546990 -9.932750 -34.306800 -35.942165 -28.450323 3.124167 -36.204381 -7.150085 -20.585323 -42.808906 -62.360765 16.149985 -2.110619 3.668596 0.759060 -0.567030 0.423820 0.235470 28.987104 41.150246 15.491783 23.609036 13.759121 -3.359379 -2.649883 5.194262 -0.056614 2.596591 -0.878078 0.069490 0.383360 -0.296100 -0.023860 
0.745810 17.180690 -3.967480 -16.348672 9.893118 -1.742652 -15.508570 10.906768 2.937059 15.785055 -0.944351 -38.699795 6.011288 13.544195 60.069534 0.835275 10.463912 0.707520 0.864940 0.789360 0.489020 18.696482 -5.429590 7.578544 -33.131055 28.830236 -101.667093 24.597443 -63.053858 108.742019 -5.940661 -24.303413 -1.620252 0.333680 -0.275150 -0.020080 -3.494872 -3.560909 -10.524944 12.409514 -2.408213 56.657543 -4.178151 4.426635 3.527421 4.165908 -12.626830 -20.418388 -32.494577 5.508695 40.811804 16.819530 -8.796250 -33.555250 -34.666992 -28.589561 3.346758 -38.301832 -8.188874 -19.773808 -49.885635 -65.599753 21.675527 -2.166120 3.711744 0.766910 -0.574060 0.451090 0.237270 29.247290 40.858086 15.706918 26.678357 10.633581 -3.465442 -0.979905 4.245636 -0.013679 2.577416 -0.896725 0.091030 0.353880 -0.315080 -0.027990 
0.763910 17.214760 -3.811640 -15.831530 12.945195 -3.380641 -15.483810 11.146738 2.885061 15.832801 -2.574302 -35.576327 4.472278 13.109461 58.596799 0.787115 10.203258 0.812591 0.803140 0.724340 0.464470 18.639840 -5.748186 7.351575 -28.766296 29.843018 -101.388644 17.978206 -59.479846 114.655297 -5.927367 -24.535410 -1.661270 0.300020 -0.232380 -0.039910 -3.456019 -3.602585 -10.401721 10.972892 -2.706049 55.896807 -3.150988 4.214768 3.548283 3.332314 -11.771278 -19.683853 -30.754849 5.387368 43.217946 17.887460 -8.228730 -31.769040 -34.853869 -28.329619 3.831462 -40.366960 -8.856425 -17.950138 -58.242805 -67.949558 28.462336 -2.306836 3.670835 0.764350 -0.543060 0.424230 0.218710 30.752704 39.545578 15.409642 30.446012 6.929246 -3.840888 0.043899 2.665053 0.037779 2.567665 -0.874037 0.054520 0.374140 -0.287580 -0.038280 
0.761830 17.296250 -3.652310 -15.185159 15.154593 -4.657139 -15.467187 11.457269 2.724508 16.009113 -3.643125 -31.631903 2.757958 12.614496 55.597337 0.688523 9.716885 0.978483 0.766290 0.665970 0.467970 18.562096 -6.100015 7.158667 -25.536680 30.336645 -100.704344 21.329981 -58.892108 111.222276 -5.786770 -23.921757 -1.577983 0.269480 -0.203100 -0.036130 -3.401379 -3.631563 -10.256050 8.643477 -1.938333 54.936633 -1.734954 4.593377 3.290810 2.225401 -10.652966 -18.770870 -28.174799 4.809767 45.349075 18.913670 -7.772850 -29.748940 -34.161523 -27.987930 4.104940 -41.601674 -10.006538 -15.813676 -62.475789 -67.971460 31.706073 -2.549399 3.546755 0.758940 -0.512440 0.401920 0.200470 32.024777 38.101717 14.973404 33.346680 3.994417 -4.019383 2.202887 0.240914 0.013608 2.576552 -0.842999 0.034970 0.366810 -0.270800 -0.054400 
0.766630 17.460480 -3.491240 -14.921695 19.210061 -6.765500 -15.463793 11.831395 2.296641 15.335710 -4.654014 -26.612105 2.964995 10.395536 51.316563 0.471180 8.714373 1.298987 0.759310 0.639300 0.480150 18.528877 -6.242788 7.326257 -21.638396 28.189412 -96.728465 24.639669 -55.132978 104.471612 -5.400665 -22.396324 -1.411706 0.255900 -0.216870 -0.028470 -3.377478 -3.906919 -10.110561 6.919047 -2.533745 55.312355 -0.356340 3.994876 2.794509 1.304374 -9.886770 -18.211316 -27.187008 5.126663 48.187608 20.436120 -7.313140 -29.378800 -34.023737 -27.827118 4.459716 -42.341022 -10.264178 -14.536504 -64.893519 -66.461433 32.536094 -2.661043 3.459959 0.797020 -0.523270 0.413550 0.181910 33.574610 36.707193 14.581470 35.931436 1.146226 -4.517506 3.108984 -1.452055 0.039444 2.576019 -0.822798 0.023040 0.349220 -0.260170 -0.078430 
0.802150 17.584990 -3.303410 -14.923670 23.228629 -8.618261 -15.470898 12.140058 1.935396 14.706063 -5.649671 -21.972933 3.628723 8.231682 47.559171 0.282401 7.823268 1.608714 0.758840 0.635230 0.484640 18.495573 -6.358440 7.463716 -19.010030 25.011949 -93.483650 33.319336 -52.780656 92.496311 -4.952205 -20.402067 -1.110348 0.261960 -0.233840 -0.030250 -3.373376 -4.143318 -9.982571 5.724845 -3.499823 54.392808 0.600593 3.260003 2.535209 0.709181 -8.871923 -17.142102 -25.401045 5.003696 50.404786 20.045930 -6.547740 -28.272190 -32.463684 -26.837440 5.113928 -44.980238 -10.682244 -12.854608 -71.026925 -67.624840 37.333307 -2.831485 3.368457 0.824210 -0.518830 0.422850 0.185960 32.840623 34.786638 13.798985 39.858917 -1.299942 -5.296118 5.372630 -3.228509 -0.154365 2.562059 -0.841700 0.002930 0.337690 -0.263660 -0.107300 
0.855910 17.717270 -3.143250 -15.167492 26.473655 -10.082485 -15.455007 12.418776 1.608776 14.483849 -5.714950 -17.758373 4.110366 6.652905 42.665908 0.107742 6.886195 1.950952 0.735950 0.601490 0.526880 18.476837 -6.590911 7.534490 -15.038223 22.600786 -88.795030 32.875561 -46.944112 86.840572 -4.499091 -18.873949 -0.896879 0.239720 -0.238420 -0.034440 -3.474628 -4.121356 -9.852407 5.524997 -4.710745 53.252578 -0.397541 2.470727 2.304488 0.720894 -7.186638 -16.114664 -22.062654 3.719013 52.734959 19.772500 -6.037230 -27.451730 -32.886459 -26.490709 5.457435 -44.452728 -11.880344 -10.337013 -81.209179 -69.043839 46.119246 -3.035372 3.211345 0.831370 -0.501770 0.425770 0.151860 32.766136 32.962942 13.235342 43.373914 -3.008779 -5.722877 6.476731 -5.104748 -0.212396 2.589975 -0.833047 -0.012430 0.339500 -0.258590 -0.137070 
0.907640 17.857900 -2.965500 -14.954640 28.775971 -11.485016 -15.447639 12.755854 1.368844 14.556228 -5.218652 -13.304381 4.357577 5.761518 37.869069 -0.021821 6.133723 2.232638 0.723520 0.583550 0.548880 18.419394 -6.942778 7.389970 -9.760679 20.796151 -81.636072 29.064133 -40.511793 83.074360 -4.059285 -17.406924 -0.673807 0.225470 -0.257210 -0.037340 -3.540900 -4.092064 -9.668585 4.543085 -5.102912 52.110927 -0.999829 1.568591 1.667750 0.542437 -5.823515 -15.157972 -19.940768 3.199795 55.483479 20.258520 -5.467980 -27.014040 -32.880382 -25.297402 5.410197 -44.007306 -12.198563 -8.698042 -87.996319 -68.265333 51.344927 -3.152134 3.091593 0.861920 -0.504100 0.443480 0.132120 32.858962 30.210686 12.758794 47.358160 -6.083101 -7.018899 6.005854 -3.348145 -0.095876 2.556251 -0.840544 -0.025840 0.333830 -0.255780 -0.165280 
0.990090 17.976630 -2.771770 -14.439881 30.628326 -12.303716 -15.436153 13.040274 1.298461 14.669853 -4.712796 -9.269355 3.990311 5.477796 33.594744 -0.097682 5.663192 2.436604 0.690860 0.537080 0.551880 18.354720 -7.375548 7.059171 -4.436516 18.553269 -74.050348 24.111999 -33.964978 79.021405 -3.537489 -15.693898 -0.370828 0.205850 -0.239980 -0.037870 -3.610461 -3.994290 -9.464144 3.605256 -5.527449 49.775604 -1.680603 0.340471 1.882429 0.340929 -4.820499 -14.291257 -18.549811 2.959654 57.285670 20.463660 -5.158250 -25.431660 -32.615498 -23.862163 5.207617 -43.632474 -13.280586 -6.753348 -97.713460 -68.330906 60.387044 -3.305373 2.907849 0.868270 -0.481240 0.432060 0.115020 32.837874 27.143043 12.254608 50.203527 -8.749862 -8.136403 5.817135 -1.794164 -0.064507 2.530319 -0.827327 -0.050160 0.336040 -0.238190 -0.184240 
1.082020 18.064860 -2.562690 -12.909443 32.749789 -12.538831 -15.447412 13.328426 1.391917 13.976554 -4.169312 -5.401888 3.494922 5.347664 29.593010 -0.138686 5.313834 2.607234 0.686730 0.527290 0.563300 18.249985 -7.862140 6.575643 -0.964318 15.167834 -66.488440 21.370834 -28.426709 72.062752 -2.971701 -13.652755 0.065320 0.205190 -0.229900 -0.039530 -3.603409 -3.940263 -9.246512 1.797902 -5.403392 46.960835 -2.201703 -0.820288 2.529140 0.244141 -3.817916 -13.839612 -17.289524 2.798945 59.439089 19.770570 -4.923300 -23.548770 -31.812499 -23.117069 5.136352 -43.253516 -14.783250 -4.881929 -103.221169 -67.216576 65.351067 -3.336039 2.861972 0.872030 -0.459210 0.428290 0.115820 32.205501 24.849066 11.817929 53.106120 -10.445550 -8.766336 5.928730 -3.109710 0.028846 2.545016 -0.810831 -0.064370 0.344830 -0.236870 -0.198790 
1.178880 18.138900 -2.353800 -11.445195 34.671928 -12.224944 -15.471313 13.589090 1.601979 13.905353 -3.814696 -2.489619 2.399025 5.594246 26.191216 -0.148845 5.177851 2.715361 0.670440 0.506450 0.544680 18.131165 -8.301945 6.014076 0.811490 11.794004 -60.034133 20.033847 -24.113481 63.934294 -2.425239 -11.640997 0.561437 0.212180 -0.200080 -0.065900 -3.518073 -4.007442 -9.036556 -0.215410 -5.372738 43.609394 -2.290259 -2.030868 3.358619 0.112980 -3.391693 -13.395751 -17.131961 2.968716 60.136822 18.652630 -5.108170 -21.087740 -30.045167 -21.707000 5.084337 -44.541611 -16.374552 -2.846799 -105.335696 -66.996244 67.973913 -3.346444 2.827360 0.861840 -0.434290 0.400160 0.141430 30.769701 22.396559 11.083880 55.321769 -11.151478 -9.009884 6.511896 -5.761318 0.119291 2.585508 -0.801619 -0.100740 0.372110 -0.240770 -0.203140 
